<?xml version="1.0"?>
<svg xmlns="http://www.w3.org/2000/svg" id="Capa_1" enable-background="new 0 0 512 512" height="512px" viewBox="0 0 512 512" width="512px"><g><path d="m168.081 181.815v93c0 57.017 35.124 107.773 87.919 127.885 52.796-20.112 87.919-70.869 87.919-127.885v-93l-87.919-46.122zm149.025 67.291-68.537 68.537-48.606-47.966 21.072-21.354 27.394 27.034 47.463-47.463z" fill="#25b05f"/><path d="m480 420.469v-61.637h-62.27c10.594-26.604 16.19-55.169 16.19-84.017v-3.815h63.08v-30h-63.081v-87.832h46.081v-61.637c18.58-6.276 32-23.86 32-44.531 0-25.916-21.084-47-47-47s-47 21.084-47 47c0 20.671 13.42 38.255 32 44.531v31.637h-24.139l-169.861-89.106-169.861 89.106h-24.139v-31.637c18.58-6.276 32-23.86 32-44.531 0-25.916-21.084-47-47-47s-47 21.084-47 47c0 20.671 13.42 38.255 32 44.531v61.637h46.081v87.832h-63.081v30h63.081v3.814c0 28.848 5.595 57.413 16.19 84.017h-62.271v61.637c-18.58 6.277-32 23.861-32 44.532 0 25.916 21.084 47 47 47s47-21.084 47-47c0-20.671-13.42-38.255-32-44.531v-31.637h46.84c5.383 9.285 11.427 18.209 18.116 26.674 31.518 39.888 76.115 68.331 125.575 80.087l3.469.825 3.469-.825c49.46-11.757 94.057-40.199 125.575-80.087 6.689-8.466 12.733-17.389 18.116-26.674h46.84v31.637c-18.58 6.276-32 23.86-32 44.531 0 25.916 21.084 47 47 47s47-21.084 47-47c0-20.671-13.42-38.255-32-44.531zm-106.081-145.655c0 71.6-45.454 135.107-113.106 158.03l-4.813 1.632-4.813-1.631c-67.652-22.923-113.106-86.43-113.106-158.03v-111.14l117.919-61.859 117.919 61.859z" fill="#25b05f"/></g></svg>
